<svg xmlns="http://www.w3.org/2000/svg" version="1.0" viewBox="0 0 512 512">
  <path d="M247 12.6c-8.3 3-15.2 9.1-20.7 18.4-1.1 1.9-15.2 30.3-31.3 63s-29.4 59.6-29.5 59.8c-.1.1-30.9 4.7-68.5 10.2-37.5 5.4-69.8 10.4-71.9 11.1C8.6 180.4-1.2 193.3.3 207.7c.3 3 2 8.4 3.7 12.1 2.8 6.2 5.8 9.3 36.3 39.2 18.3 17.8 41.2 40.4 51.1 50.1l17.9 17.6-11.8 68.4c-13.3 77.5-13.3 77.8-7.5 89.5 6.6 13.5 20.4 19 36.5 14.9 3.9-1 28.3-13.3 67.8-34l61.8-32.5 61.7 32.5c39.5 20.8 63.8 33 67.7 34 16.1 4.1 29.9-1.4 36.5-14.9 5.8-11.7 5.8-12-7.5-89.5l-11.8-68.4 17.4-17.1c9.6-9.5 32.6-32 51.1-50.1 31-30.4 34-33.5 36.8-39.7 4-8.5 4.8-15.6 2.6-23-3-10.6-14.7-20-27.9-22.7-2.9-.6-34.6-5.4-70.6-10.6-36-5.3-65.5-9.6-65.6-9.8-.1-.1-13.6-27.4-30-60.7-16.4-33.2-30.9-62.2-32.2-64.4-3.7-5.7-10.6-12-16-14.6-6.3-3-15.4-3.5-21.3-1.4z"/>
</svg>
